<?xml version="1.0" encoding="utf-8"?>
<!-- Generator: Adobe Illustrator 18.0.0, SVG Export Plug-In . SVG Version: 6.00 Build 0)  -->
<!DOCTYPE svg PUBLIC "-//W3C//DTD SVG 1.1//EN" "http://www.w3.org/Graphics/SVG/1.1/DTD/svg11.dtd">
<svg version="1.1" id="hgcfdghg" xmlns="http://www.w3.org/2000/svg" xmlns:xlink="http://www.w3.org/1999/xlink" x="0px" y="0px"
	 viewBox="2198.4 2245.6 1651.3 786.5" enable-background="new 2198.4 2245.6 1651.3 786.5" xml:space="preserve">
<g>
	<path fill="#192A56" d="M3756.1,3033.2H2292.8c-51.5,0-93.3-41.8-93.3-93.3v-600.9c0-51.5,41.8-93.3,93.3-93.3h1463.3
		c51.5,0,93.3,41.8,93.3,93.3v600.9C3849.4,2991.4,3807.7,3033.2,3756.1,3033.2z"/>
</g>
<g>
	<g>
		<path fill="#FAD02E" d="M2561.1,2725.2c-10.5,0-19.1,8.5-19.1,19.1s8.5,19.1,19.1,19.1c10.5,0,19.1-8.5,19.1-19.1
			S2571.7,2725.2,2561.1,2725.2z M2561.1,2760.5c-9,0-16.3-7.3-16.3-16.3c0-9,7.3-16.3,16.3-16.3c9,0,16.3,7.3,16.3,16.3
			C2577.4,2753.2,2570.1,2760.5,2561.1,2760.5z"/>
		<path fill="#FAD02E" d="M2752.5,2733.1c-6.2,0-11.2,5-11.2,11.2c0,6.2,5,11.2,11.2,11.2c6.2,0,11.2-5,11.2-11.2
			C2763.7,2738.1,2758.7,2733.1,2752.5,2733.1z M2746.5,2743.2c-0.2-0.8,0.2-1.6,1-1.8c0.1,0,0.2-0.1,0.4-0.1c0.5,0,1.1,0.3,1.3,0.8
			l0.1,0.3c0.2,0.8-0.3,1.6-1,1.8C2747.5,2744.4,2746.7,2744,2746.5,2743.2z M2749.5,2749.5c-0.8,0-1.4-0.7-1.4-1.5
			c0-0.7,0.5-1.3,1.2-1.4l0.3,0c0.8,0,1.4,0.7,1.4,1.5C2751,2748.9,2750.3,2749.5,2749.5,2749.5z M2753.1,2740.8
			c-0.7,0.4-1.6,0.3-2-0.4c-0.4-0.7-0.3-1.6,0.4-2c0.3-0.2,0.5-0.3,0.8-0.3c0.5,0,0.9,0.3,1.2,0.7c0.4,0.6,0.3,1.4-0.2,1.8
			L2753.1,2740.8z M2756.4,2748.5c-0.3,0.8-1.1,1.1-1.9,0.9c-0.6-0.2-1-0.9-0.9-1.6l0.1-0.3c0.2-0.6,0.7-0.9,1.3-1
			c0.2,0,0.4,0,0.6,0.1C2756.3,2747,2756.7,2747.8,2756.4,2748.5z M2757.9,2743.8c-0.4,0.5-1.2,0.7-1.8,0.4l-0.2-0.1
			c-0.6-0.5-0.7-1.4-0.2-2.1c0.3-0.4,0.7-0.6,1.1-0.6c0.3,0,0.7,0.1,0.9,0.3C2758.3,2742.2,2758.4,2743.1,2757.9,2743.8z"/>
		<path fill="#FAD02E" d="M2752.3,2725.2c-10.5,0-19.1,8.5-19.1,19.1s8.5,19.1,19.1,19.1c10.5,0,19.1-8.5,19.1-19.1
			S2762.8,2725.2,2752.3,2725.2z M2752.5,2760.5c-9,0-16.3-7.3-16.3-16.3c0-9,7.3-16.3,16.3-16.3c9,0,16.3,7.3,16.3,16.3
			C2768.7,2753.2,2761.5,2760.5,2752.5,2760.5z"/>
		<path fill="#FAD02E" d="M2561.1,2733.1c-6.2,0-11.2,5-11.2,11.2c0,6.2,5,11.2,11.2,11.2c6.2,0,11.2-5,11.2-11.2
			C2572.4,2738.1,2567.3,2733.1,2561.1,2733.1z M2555.3,2743.2c-0.2-0.8,0.2-1.6,1-1.8c0.1,0,0.2-0.1,0.4-0.1c0.5,0,1.1,0.3,1.3,0.8
			l0.1,0.3c0.2,0.8-0.3,1.6-1,1.8C2556.3,2744.4,2555.5,2744,2555.3,2743.2z M2558.3,2749.5c-0.8,0-1.4-0.7-1.4-1.5
			c0-0.7,0.5-1.3,1.2-1.4l0.3,0c0.8,0,1.4,0.7,1.4,1.5C2559.8,2748.9,2559.1,2749.5,2558.3,2749.5z M2562,2740.8
			c-0.7,0.4-1.6,0.3-2-0.4c-0.4-0.7-0.3-1.6,0.4-2c0.3-0.2,0.5-0.3,0.8-0.3c0.5,0,0.9,0.3,1.2,0.7c0.4,0.6,0.3,1.4-0.2,1.8
			L2562,2740.8z M2565.2,2748.5c-0.3,0.8-1.1,1.1-1.9,0.9c-0.6-0.2-1-0.9-0.9-1.6l0.1-0.3c0.2-0.6,0.7-0.9,1.3-1
			c0.2,0,0.4,0,0.6,0.1C2565.1,2747,2565.5,2747.8,2565.2,2748.5z M2566.7,2743.8c-0.4,0.5-1.2,0.7-1.8,0.4l-0.2-0.1
			c-0.6-0.5-0.7-1.4-0.2-2.1c0.3-0.4,0.7-0.6,1.1-0.6c0.3,0,0.7,0.1,0.9,0.3C2567.1,2742.2,2567.2,2743.1,2566.7,2743.8z"/>
		<path fill="#FAD02E" d="M2952.2,2369.8h-587.1c-29.5,0-53.4,23.9-53.4,53.4v459c0,29.5,23.9,53.4,53.4,53.4h587.1
			c29.5,0,53.4-23.9,53.4-53.4v-459C3005.5,2393.7,2981.6,2369.8,2952.2,2369.8z M2650.3,2546.9v-4.2l-8.2-12.8h28.1l-7.5,12.8v4.2
			c87.2,3.4,152.6,74.3,152.6,157.3h-314.5C2500.9,2621.2,2567.3,2550.3,2650.3,2546.9z M2561.1,2777.1c-18.1,0-32.9-14.7-32.9-32.9
			c0-18.1,14.7-32.9,32.9-32.9c18.2,0,32.9,14.7,32.9,32.9C2594,2762.4,2579.3,2777.1,2561.1,2777.1z M2752.3,2777.1
			c-18.1,0-32.9-14.7-32.9-32.9c0-18.1,14.7-32.9,32.9-32.9c18.2,0,32.9,14.7,32.9,32.9C2785.2,2762.4,2770.4,2777.1,2752.3,2777.1z
			 M2818.9,2716.7h-1.1c-0.7,4.8-4.8,8.5-9.8,8.5h-25.7c-6.2-10-17.3-16.7-30-16.7c-12.7,0-23.7,6.7-30,16.7h-131.5
			c-6.2-10-17.3-16.7-30-16.7c-12.7,0-23.7,6.7-30,16.7h-22.7c-5,0-9.1-3.7-9.8-8.5h-1.1l-25.5-11h371.7L2818.9,2716.7z
			 M2845.4,2670.3h-16.9l-0.9-4.6h17.8V2670.3z M2845.4,2621.2h-35.1l-2.8-4.6h37.9V2621.2z M2845.4,2574.6h-74.2l-5.5-4.6h79.7
			V2574.6z"/>
		<path fill="#FAD02E" d="M2538.7,2671h18.5c0,0,8.1-37.4,57.3-93.1C2614.5,2577.9,2553.1,2608.7,2538.7,2671z"/>
	</g>
	<g id="SvgjsG1011_7_" transform="matrix(5.143383965901854,0,0,5.143383965901854,150.0000000574818,-37.2528389005427)">
		<path fill="#FAD02E" d="M588.3,507c-0.3-4.2-0.1-8.6,0.5-13c2.3-0.2,4.5,0.1,6.6,1c2.5,1.1,3.7,2.8,3.5,5.2
			C598.4,506,594.8,508.2,588.3,507L588.3,507z M568.9,481.2l-0.3,0l0.2,0.2h-0.2c2.9,12,4.1,25,3.3,39c-0.3,4.8-0.7,9.3-1.4,13.7
			c-0.2,1.6-0.5,3.1-0.8,4.5c-0.2,1.1-0.4,1.9-0.6,2.6H591c-1.8-5-2.8-11.4-3.1-19c11.7,1.8,20-0.8,24.8-7.7c1.8-2.5,3-5.5,3.6-9
			c0.5-2.6,0.7-5.2,0.4-7.7c-1-11.1-8.6-16.6-22.8-16.6L568.9,481.2L568.9,481.2z M620.3,541.2c3.1-26.5,3.1-46.3,0-59.3
			c0-0.1,0-0.2,0-0.3l0-0.1l0,0h22.6c-3.8,19.2-5.1,33.8-4,43.9c1.1,10,1.7,15.3,1.9,15.9L620.3,541.2L620.3,541.2z M687.4,524.9
			c-4.6,2.7-9,2.6-13.3-0.2c-4-2.6-6.5-6.6-7.5-11.9c-0.6-3.4-0.5-6.7,0.5-9.9c1.1-3.5,3-6.1,5.7-7.8c1.2-0.7,2.2-1.3,3.1-1.6
			c1.2-0.5,2.3-0.8,3.4-0.8c1.1,0,2,0.2,3,0.5c1.1,0.4,1.9,1,2.4,1.8c0.3,0.6,0.5,1.1,0.5,1.6l0,0v0c-0.9-1.7-2.3-2.5-4.2-2.4
			c-2.2,0.1-3.7,1.2-4.5,3.3c-0.4,1.1-0.3,2.4,0.4,3.8c0.6,1.3,1.5,2.2,2.6,2.8c2.1,1.2,4.4,1.7,6.7,1.4c2.5-0.3,4.4-1.3,6-3.2
			c1.5-1.8,2.4-4.5,2.7-8.1c0.4-5.4-1.8-9.3-6.5-11.8c-3.9-2-8.8-2.8-14.8-2.4c-4.9,0.3-9.4,1.9-13.5,4.9c-4.3,3-7.7,6.9-10.2,11.5
			c-2.5,4.6-3.8,9.4-3.9,14.4c0,5.4,0.9,10.2,2.8,14.6c2.1,4.9,5.2,8.7,9.3,11.5c5.9,4,12.7,5.9,20.4,5.6c3.8-0.1,7.3-1,10.5-2.6
			c3.7-1.8,6.3-4.3,7.7-7.5c0.8-1.9,1.2-4.3,1-7.1c-0.2-2.9-0.9-5.2-2.1-6.9C692.1,521.5,689.5,523.7,687.4,524.9L687.4,524.9z"/>
	</g>
	<g id="SvgjsG1012_7_" transform="matrix(1.072958480761344,0,0,1.072958480761344,148.84120479473137,95.54078791977588)">
		<path fill="#FAD02E" d="M2727.2,2589.9c-0.8,0-1.2-0.4-1.2-1.2v-55.6c0-0.8,0.4-1.2,1.2-1.2h26.4c0.4,0,0.7,0,1.1,0.1
			c0.3,0.1,0.7,0.3,1.1,0.7l4.6,4.6c0.4,0.5,0.7,0.9,0.8,1.3c0.1,0.4,0.1,0.7,0.1,0.9v21.3c0,0.8-0.3,1.5-0.9,2.2l-4.6,4.6
			c-0.3,0.3-0.6,0.5-0.9,0.7c-0.3,0.2-0.7,0.2-1.2,0.2H2736v20.1c0,0.8-0.4,1.2-1.2,1.2H2727.2z M2751.1,2557
			c0.1-0.1,0.2-0.2,0.2-0.3v-12.8c0-0.2-0.1-0.3-0.2-0.4l-1.5-1.4c-0.1-0.1-0.2-0.2-0.4-0.2H2736v16.7h13.2c0.2,0,0.4-0.1,0.5-0.2
			L2751.1,2557z M2802.1,2589.9c-0.3,0-0.7-0.1-1-0.4c-0.3-0.2-0.5-0.5-0.6-0.9l-3.2-11.1h-18.5l-3.2,11.1c-0.1,0.3-0.3,0.6-0.6,0.9
			c-0.3,0.2-0.6,0.4-1,0.4h-7.2c-0.3,0-0.7-0.1-1-0.4c-0.3-0.2-0.4-0.5-0.3-0.9l16.4-55.5c0.1-0.3,0.2-0.6,0.4-0.8
			c0.2-0.3,0.4-0.4,0.7-0.4h9.8c0.6,0,1,0.4,1.2,1.2l16.4,55.6c0.1,0.3,0,0.6-0.2,0.9c-0.3,0.2-0.6,0.4-0.9,0.4H2802.1z
			 M2788,2546.2l-6.2,21.2h12.5L2788,2546.2z M2844.7,2589.9c-0.3,0-0.6-0.1-0.9-0.4c-0.3-0.2-0.5-0.5-0.6-0.8l-8.2-20.2h-9.3v20.2
			c0,0.8-0.4,1.2-1.2,1.2h-7.6c-0.8,0-1.2-0.4-1.2-1.2v-55.6c0-0.8,0.4-1.2,1.2-1.2h26.4c0.2,0,0.4,0,0.7,0.1
			c0.2,0.1,0.5,0.1,0.7,0.2s0.5,0.3,0.8,0.5l4.6,4.6c0.4,0.4,0.7,0.9,0.8,1.5c0.1,0.2,0.1,0.4,0.1,0.7v21.1c0,1-0.3,1.8-0.9,2.4
			l-4.9,4.9l8.4,20.7c0.1,0.3,0.1,0.6,0,0.8s-0.5,0.4-1,0.4H2844.7L2844.7,2589.9z M2840.7,2557c0.2-0.2,0.2-0.4,0.2-0.6v-12.5
			c0-0.2-0.1-0.3-0.2-0.4l-1.4-1.3c-0.3-0.2-0.5-0.2-0.6-0.2h-13.1v16.7h13.1c0.2,0,0.4-0.1,0.6-0.2L2840.7,2557z M2870.2,2589.9
			c-0.3,0-0.5-0.1-0.7-0.3c-0.2-0.2-0.3-0.4-0.3-0.7v-47h-11.6c-0.8,0-1.2-0.4-1.2-1.2v-7.6c0-0.8,0.4-1.2,1.2-1.2h33.3
			c0.3,0,0.5,0.1,0.8,0.3s0.4,0.5,0.4,0.8v7.6c0,0.3-0.1,0.6-0.4,0.8c-0.2,0.2-0.5,0.3-0.8,0.3h-11.7v47c0,0.7-0.3,1-0.9,1H2870.2z
			 M2924.3,2589.9c-0.3,0-0.7-0.1-1-0.4s-0.5-0.5-0.6-0.8l-14.5-35.9v35.9c0,0.8-0.4,1.2-1.2,1.2h-7.6c-0.8,0-1.2-0.4-1.2-1.2v-55.6
			c0-0.8,0.4-1.2,1.2-1.2h10.1c0.6,0,1,0.4,1.2,1.2l12.9,33.3l0.5,2.3v-35.6c0-0.8,0.4-1.2,1.2-1.2h7.6c0.8,0,1.2,0.4,1.2,1.2v55.6
			c0,0.8-0.4,1.2-1.2,1.2H2924.3z M2944.2,2589.9c-0.8,0-1.2-0.4-1.2-1.2v-55.6c0-0.8,0.4-1.2,1.2-1.2h30.1c0.8,0,1.2,0.4,1.2,1.2
			v7.6c0,0.3-0.1,0.5-0.3,0.8c-0.2,0.2-0.5,0.4-0.8,0.4H2953v14h16.9c0.3,0,0.5,0.1,0.8,0.3s0.4,0.5,0.4,0.8v7.6
			c0,0.3-0.1,0.6-0.4,0.8s-0.5,0.3-0.8,0.3H2953v14h21.3c0.8,0,1.2,0.4,1.2,1.2v7.6c0,0.8-0.4,1.2-1.2,1.2H2944.2z M3011.1,2589.9
			c-0.3,0-0.6-0.1-0.9-0.4c-0.3-0.2-0.5-0.5-0.6-0.8l-8.2-20.2h-9.3v20.2c0,0.8-0.4,1.2-1.2,1.2h-7.6c-0.8,0-1.2-0.4-1.2-1.2v-55.6
			c0-0.8,0.4-1.2,1.2-1.2h26.4c0.2,0,0.4,0,0.7,0.1c0.2,0.1,0.5,0.1,0.7,0.2s0.5,0.3,0.8,0.5l4.6,4.6c0.4,0.4,0.7,0.9,0.8,1.5
			c0.1,0.2,0.1,0.4,0.1,0.7v21.1c0,1-0.3,1.8-0.9,2.4l-4.9,4.9l8.4,20.7c0.1,0.3,0.1,0.6,0,0.8s-0.5,0.4-1,0.4H3011.1L3011.1,2589.9
			z M3007.1,2557c0.2-0.2,0.2-0.4,0.2-0.6v-12.5c0-0.2-0.1-0.3-0.2-0.4l-1.4-1.3c-0.3-0.2-0.5-0.2-0.6-0.2h-13.1v16.7h13.1
			c0.2,0,0.4-0.1,0.6-0.2L3007.1,2557z M3056.4,2589c-0.3,0.3-0.7,0.6-1.1,0.7s-0.7,0.2-1.1,0.2h-21.4c-0.6,0-1-0.1-1.3-0.2
			c-0.2-0.1-0.5-0.4-0.9-0.7l-4.7-4.6c-0.4-0.4-0.6-0.7-0.7-1s-0.1-0.6-0.1-0.9v-8.5c0-0.3,0.1-0.5,0.3-0.8s0.5-0.4,0.8-0.4h7.6
			c0.3,0,0.6,0.1,0.8,0.4s0.3,0.5,0.3,0.8v6h14.9c0.1,0,0.2-0.1,0.4-0.2l1.4-1.3c0.2-0.1,0.2-0.3,0.2-0.6v-9.7
			c0-0.2-0.1-0.4-0.2-0.6l-1.3-1.3c-0.2-0.2-0.4-0.2-0.6-0.2h-17.3c-0.2,0-0.4-0.1-0.8-0.2c-0.4-0.1-0.7-0.4-1.1-0.7l-4.7-4.6
			c-0.3-0.3-0.6-0.7-0.7-1c-0.1-0.4-0.2-0.7-0.2-1v-18.7c0-0.3,0.1-0.6,0.2-1c0.1-0.4,0.4-0.8,0.7-1.2l4.6-4.6
			c0.3-0.3,0.5-0.5,0.8-0.6c0.2-0.1,0.7-0.2,1.4-0.2h21.4c0.3,0,0.7,0.1,1.1,0.2s0.8,0.3,1,0.6l4.6,4.6c0.4,0.5,0.7,0.9,0.8,1.2
			s0.1,0.6,0.1,1v8.7c0,0.8-0.4,1.2-1.2,1.2h-7.6c-0.8,0-1.2-0.4-1.2-1.2v-6.4h-14.6c-0.2,0-0.4,0.1-0.7,0.2l-1.4,1.3
			c-0.2,0.1-0.2,0.3-0.2,0.6v9.6c0,0.2,0.1,0.4,0.2,0.6l1.4,1.4c0.2,0.2,0.4,0.2,0.7,0.2h16.9c0.9,0,1.6,0.3,2.2,0.8l4.6,4.6
			c0.6,0.7,0.9,1.4,0.9,2.2v18.6c0,0.8-0.3,1.5-0.9,2.2L3056.4,2589z M3091.5,2589.9c-0.8,0-1.2-0.4-1.2-1.2v-55.6
			c0-0.8,0.4-1.2,1.2-1.2h7.6c0.8,0,1.2,0.4,1.2,1.2v55.6c0,0.8-0.4,1.2-1.2,1.2H3091.5z M3135.3,2589.9c-0.3,0-0.7-0.1-1-0.4
			s-0.5-0.5-0.6-0.8l-14.5-35.9v35.9c0,0.8-0.4,1.2-1.2,1.2h-7.6c-0.8,0-1.2-0.4-1.2-1.2v-55.6c0-0.8,0.4-1.2,1.2-1.2h10.1
			c0.6,0,1,0.4,1.2,1.2l12.9,33.3l0.5,2.3v-35.6c0-0.8,0.4-1.2,1.2-1.2h7.6c0.8,0,1.2,0.4,1.2,1.2v55.6c0,0.8-0.4,1.2-1.2,1.2
			H3135.3z M3204.9,2589c-0.3,0.3-0.6,0.5-0.8,0.6c-0.3,0.1-0.7,0.2-1.3,0.2h-21.7c-0.3,0-0.6,0-0.9-0.1c-0.3-0.1-0.6-0.3-1-0.7
			l-4.7-4.7c-0.3-0.3-0.6-0.7-0.7-1c-0.1-0.3-0.2-0.6-0.2-1v-42.8c0-0.9,0.3-1.6,0.8-2.2l4.7-4.6c0.3-0.3,0.7-0.6,1-0.7
			c0.4-0.1,0.7-0.2,1.1-0.2h21.4c0.4,0,0.8,0.1,1.2,0.2c0.3,0.1,0.7,0.3,1,0.7l4.6,4.6c0.3,0.3,0.6,0.6,0.7,0.9
			c0.1,0.2,0.2,0.7,0.2,1.3v8.9c0,0.8-0.4,1.2-1.2,1.2h-7.6c-0.8,0-1.2-0.4-1.2-1.2v-4.4c0-0.2-0.1-0.4-0.2-0.6l-1.4-1.3
			c-0.3-0.2-0.4-0.2-0.5-0.2h-12.5c-0.3,0-0.5,0.1-0.7,0.2l-1.4,1.3c-0.2,0.2-0.2,0.4-0.2,0.6v34c0,0.3,0.1,0.6,0.2,0.7l1.2,1.2
			h14.1l1.2-1.2c0.2-0.2,0.2-0.4,0.2-0.6v-4.6c0-0.3,0.1-0.6,0.3-0.9c0.2-0.2,0.5-0.4,0.8-0.4h7.6c0.3,0,0.6,0.1,0.8,0.4
			c0.2,0.2,0.3,0.5,0.3,0.9v8.8c0,0.4-0.1,0.7-0.2,1c-0.1,0.3-0.4,0.6-0.7,1L3204.9,2589z M3250.9,2589.9c-0.3,0-0.7-0.1-1-0.4
			c-0.3-0.2-0.5-0.5-0.6-0.9l-3.2-11.1h-18.5l-3.2,11.1c-0.1,0.3-0.3,0.6-0.6,0.9c-0.3,0.2-0.6,0.4-1,0.4h-7.2c-0.3,0-0.7-0.1-1-0.4
			c-0.3-0.2-0.4-0.5-0.3-0.9l16.4-55.5c0.1-0.3,0.2-0.6,0.4-0.8c0.2-0.3,0.4-0.4,0.7-0.4h9.8c0.6,0,1,0.4,1.2,1.2l16.4,55.6
			c0.1,0.3,0,0.6-0.2,0.9c-0.3,0.2-0.6,0.4-0.9,0.4H3250.9z M3236.8,2546.2l-6.2,21.2h12.5L3236.8,2546.2z M3293.5,2589.9
			c-0.3,0-0.6-0.1-0.9-0.4c-0.3-0.2-0.5-0.5-0.6-0.8l-8.2-20.2h-9.3v20.2c0,0.8-0.4,1.2-1.2,1.2h-7.6c-0.8,0-1.2-0.4-1.2-1.2v-55.6
			c0-0.8,0.4-1.2,1.2-1.2h26.4c0.2,0,0.4,0,0.7,0.1c0.2,0.1,0.5,0.1,0.7,0.2c0.2,0.1,0.5,0.3,0.8,0.5l4.6,4.6
			c0.4,0.4,0.7,0.9,0.8,1.5c0.1,0.2,0.1,0.4,0.1,0.7v21.1c0,1-0.3,1.8-0.9,2.4l-4.9,4.9l8.4,20.7c0.1,0.3,0.1,0.6,0,0.8
			s-0.5,0.4-1,0.4H3293.5L3293.5,2589.9z M3289.5,2557c0.2-0.2,0.2-0.4,0.2-0.6v-12.5c0-0.2-0.1-0.3-0.2-0.4l-1.4-1.3
			c-0.3-0.2-0.5-0.2-0.6-0.2h-13.1v16.7h13.1c0.2,0,0.4-0.1,0.6-0.2L3289.5,2557z M3309.3,2589.9c-0.8,0-1.2-0.4-1.2-1.2v-55.6
			c0-0.8,0.4-1.2,1.2-1.2h30.1c0.8,0,1.2,0.4,1.2,1.2v7.6c0,0.3-0.1,0.5-0.3,0.8c-0.2,0.2-0.5,0.4-0.8,0.4h-21.3v14h16.9
			c0.3,0,0.5,0.1,0.8,0.3s0.4,0.5,0.4,0.8v7.6c0,0.3-0.1,0.6-0.4,0.8s-0.5,0.3-0.8,0.3h-16.9v14h21.3c0.8,0,1.2,0.4,1.2,1.2v7.6
			c0,0.8-0.4,1.2-1.2,1.2H3309.3z"/>
	</g>
</g>
</svg>
